<svg width="231" height="68" fill="none" xmlns="http://www.w3.org/2000/svg"><path d="M165.495 10.408c-8.099 0-14.692 6.647-14.692 14.828v7.46a14.84 14.84 0 008.484 13.42c0 .02-.007.034-.007.055v9.464a2.02 2.02 0 002.008 2.026c1.106 0 2.007-.916 2.007-2.026V47.33c.715.111 1.444.18 2.193.18.743 0 1.465-.076 2.18-.18v8.292c0 1.117.907 2.026 2.007 2.026 1.107 0 2.008-.916 2.008-2.026v-9.457c0-.021-.007-.035-.007-.049a14.842 14.842 0 008.497-13.427v-7.452c.014-8.18-6.579-14.828-14.678-14.828zm38.651 0c-8.098 0-14.692 6.647-14.692 14.828v7.46c0 5.94 3.486 11.06 8.498 13.426h.014c0 .014-.007.028-.007.049v9.464c0 1.117.907 2.026 2.007 2.026 1.107 0 2.008-.916 2.008-2.026v-8.299c.708.104 1.43.18 2.165.18.757 0 1.485-.076 2.207-.187v8.3a2.02 2.02 0 002.008 2.025c1.107 0 2.007-.916 2.007-2.026v-9.464c0-.021-.007-.042-.007-.063a14.84 14.84 0 008.47-13.413v-7.452c.007-8.18-6.579-14.828-14.678-14.828z" fill="#000"/><path d="M214.727 32.689c0 5.89-4.751 10.685-10.587 10.685-5.837 0-10.588-4.794-10.588-10.685v-7.453c0-5.89 4.751-10.685 10.588-10.685 5.836 0 10.587 4.794 10.587 10.685v7.453z" fill="#FFD530"/><path d="M126.851 10.408c-8.099 0-14.692 6.647-14.692 14.828v7.46a14.835 14.835 0 008.477 13.412c0 .021-.007.035-.007.056v9.464c0 1.117.907 2.026 2.007 2.026 1.107 0 2.008-.916 2.008-2.026v-9.464c0-.021-.007-.035-.007-.049 0-.02-.007-.041-.007-.07v-2.914a10.46 10.46 0 01-3.981-1.797 10.708 10.708 0 01-4.393-8.645v-7.453c0-5.89 4.751-10.685 10.588-10.685 5.837 0 10.587 4.794 10.587 10.685v7.46c0 3.552-1.739 6.702-4.393 8.645a10.352 10.352 0 01-3.98 1.797V55.6c0 1.117.9 2.026 2.007 2.026 1.107 0 2.008-.915 2.008-2.026v-9.45c0-.014-.007-.028-.007-.049a14.841 14.841 0 008.47-13.412v-7.453c0-8.18-6.587-14.828-14.685-14.828zM22.275 34.833V21.739l-3.52 5.544a.863.863 0 01-.75.416.953.953 0 01-.776-.416l-3.5-5.544v13.094a.924.924 0 01-.907.916.92.92 0 01-.908-.916V18.596c0-.416.262-.784.647-.888a.961.961 0 011.038.395l4.4 6.98 4.427-6.98a.906.906 0 011.01-.395c.386.104.647.472.647.888v16.237a.906.906 0 01-.907.916.923.923 0 01-.901-.916zm16.17 0a.906.906 0 01-.908.916h-8.882a.906.906 0 01-.908-.916V18.575c0-.5.385-.916.908-.916h8.882c.516 0 .908.416.908.916a.89.89 0 01-.908.916h-7.975v6.3h4.455c.495 0 .908.396.908.916a.92.92 0 01-.908.916h-4.455v6.3h7.975a.886.886 0 01.908.91zm15.448 0V21.739l-3.52 5.544a.863.863 0 01-.75.416.953.953 0 01-.776-.416l-3.5-5.544v13.094a.924.924 0 01-.907.916.92.92 0 01-.907-.916V18.596c0-.416.26-.784.646-.888a.961.961 0 011.038.395l4.4 6.98 4.427-6.98a.906.906 0 011.011-.395c.385.104.646.472.646.888v16.237a.906.906 0 01-.907.916.923.923 0 01-.9-.916zm16.17 0a.906.906 0 01-.907.916h-8.883a.906.906 0 01-.907-.916V18.575c0-.5.385-.916.907-.916h8.883c.515 0 .907.416.907.916 0 .52-.385.916-.907.916H61.18v6.3h4.455c.495 0 .907.396.907.916a.92.92 0 01-.907.916H61.18v6.3h7.975c.515-.006.907.39.907.91zm7.04 1.485a2.33 2.33 0 01-.495-.063l-.02-.007a2.227 2.227 0 01-1.685-2.179V19.36c0-1.221.983-2.22 2.2-2.22 1.23 0 2.2.971 2.2 2.22v5.398l.2-.388c.385-.742 1.154-1.214 1.959-1.214.839 0 1.588.464 1.96 1.214l.295.583V19.36c0-1.221.983-2.22 2.2-2.22 1.244 0 2.22.971 2.22 2.22v14.717c0 1.013-.708 1.93-1.677 2.172a2.223 2.223 0 01-2.496-1.13l-2.475-4.844-2.427 4.808c-.385.764-1.134 1.236-1.959 1.236z" fill="#000"/><path d="M76.828 35.193c.11.021.2.042.268.042a1.1 1.1 0 00.99-.638l3.383-6.703 3.437 6.724a1.15 1.15 0 001.286.582c.495-.125.86-.596.86-1.117V19.36c0-.631-.503-1.13-1.142-1.13-.626 0-1.12.492-1.12 1.13V29.4l-2.338-4.537a1.102 1.102 0 00-.997-.625 1.13 1.13 0 00-.997.625l-2.234 4.461V19.36c0-.645-.481-1.13-1.12-1.13-.626 0-1.121.492-1.121 1.13v14.717c0 .535.35.992.845 1.117z" fill="#FFD530"/><path d="M101.764 36.297h-8.106a2.221 2.221 0 01-2.22-2.22V19.358a2.2 2.2 0 012.22-2.22h8.106c1.23 0 2.2.971 2.2 2.22 0 1.221-.983 2.22-2.2 2.22h-5.913v2.887h2.695c1.23 0 2.2.985 2.2 2.241 0 1.221-.983 2.22-2.2 2.22h-2.695v2.908h5.913c1.23 0 2.2.985 2.2 2.241-.007 1.221-.99 2.22-2.2 2.22z" fill="#000"/><path d="M93.651 18.228c-.64 0-1.141.493-1.141 1.131v14.717a1.14 1.14 0 001.141 1.131h8.106c.619 0 1.121-.506 1.121-1.13 0-.646-.489-1.153-1.121-1.153h-6.992v-5.086h3.774c.62 0 1.121-.506 1.121-1.13 0-.646-.488-1.153-1.12-1.153h-3.775V20.49h6.992c.619 0 1.121-.506 1.121-1.13 0-.646-.482-1.132-1.121-1.132h-8.106z" fill="#FFD530"/><path d="M11.688 50.202v-5.114c0-2.88 2.344-5.246 5.218-5.246 2.873 0 5.218 2.367 5.218 5.246 0 .444-.35.805-.777.805a.802.802 0 01-.798-.805c0-2.033-1.636-3.684-3.65-3.684a3.687 3.687 0 00-3.672 3.684v5.114c0 2.033 1.657 3.705 3.672 3.705 2.014 0 3.65-1.672 3.65-3.705v-.583h-4.503a.793.793 0 01-.777-.784c0-.444.351-.784.777-.784h5.308c.42 0 .777.333.777.784v1.36c0 2.9-2.345 5.267-5.218 5.267-2.874 0-5.226-2.36-5.226-5.26zm16.664-4.358l-2.832 8.98a.758.758 0 01-.729.554c-.09 0-.151-.02-.24-.041-.4-.132-.62-.555-.51-.986l2.833-9a.779.779 0 01.977-.492c.412.118.632.562.502.985zm5.507 9.493a.876.876 0 01-.22.041.802.802 0 01-.749-.555l-1.265-4.017h-3.163a.793.793 0 01-.776-.784c0-.424.357-.785.776-.785h2.654l-2.654-8.368c-.13-.423.11-.874.51-.985a.782.782 0 01.976.493l4.427 13.974a.784.784 0 01-.516.986zm12.321-.333l-7.432-11.588V54.6a.793.793 0 01-.777.784.793.793 0 01-.777-.784V40.73c0-.361.22-.674.55-.757.33-.09.687.042.887.333l7.41 11.609V40.73c0-.445.352-.785.778-.785.44 0 .777.334.777.785v13.863c0 .333-.22.646-.55.736-.07.02-.131.041-.22.041a.722.722 0 01-.647-.367zm4.874-4.802v-5.114c0-2.88 2.344-5.246 5.218-5.246s5.218 2.367 5.218 5.246c0 .444-.35.805-.777.805a.802.802 0 01-.797-.805c0-2.033-1.637-3.684-3.651-3.684s-3.671 1.651-3.671 3.684v5.114c0 2.033 1.657 3.705 3.671 3.705s3.65-1.672 3.65-3.705v-.583h-4.502a.793.793 0 01-.777-.784c0-.444.35-.784.776-.784h5.308c.42 0 .777.333.777.784v1.36c0 2.9-2.344 5.267-5.218 5.267s-5.225-2.36-5.225-5.26zm22.749 4.802l-7.432-11.588V54.6a.793.793 0 01-.777.784.793.793 0 01-.776-.784V40.73c0-.361.22-.674.55-.757.33-.09.687.042.886.333l7.412 11.609V40.73a.78.78 0 01.776-.785c.44 0 .777.334.777.785v13.863c0 .333-.22.646-.55.736-.068.02-.13.041-.22.041a.73.73 0 01-.646-.367zm8.717-9.16l-2.832 8.98a.758.758 0 01-.729.554c-.089 0-.15-.02-.24-.041-.399-.132-.619-.555-.509-.986l2.833-9a.779.779 0 01.976-.492c.412.118.632.562.502.985zm5.508 9.493a.874.874 0 01-.22.041.802.802 0 01-.75-.555L85.8 50.806h-3.162a.793.793 0 01-.777-.784c0-.424.357-.785.776-.785h2.654l-2.653-8.375c-.131-.423.11-.874.508-.985a.782.782 0 01.977.493l4.427 13.974a.793.793 0 01-.522.993zm12.148-.736V43.416l-3.012 4.732a.746.746 0 01-.639.361.782.782 0 01-.66-.36l-2.984-4.733V54.6c0 .424-.35.784-.777.784a.793.793 0 01-.776-.784V40.73c0-.361.22-.674.55-.757.33-.09.687.042.886.333l3.761 5.96 3.781-5.96a.768.768 0 01.86-.333c.33.09.55.403.55.757v13.863c0 .423-.33.784-.777.784a.78.78 0 01-.763-.777z" fill="#000"/></svg>