<svg width="60" height="60" fill="none" xmlns="http://www.w3.org/2000/svg"><path d="M38.595 39.097c1.054-.867 2.278-1.512 3.433-1.723l8.907-1.65c2.408-.442 2.822-2.1.916-3.677l-7.033-5.838c-.726-.604-1.358-1.46-1.85-2.42-4.763 2.287-9.133 3.6-12.976 4.305 2.197 4.018 5.635 7.979 8.603 11.003z" fill="#EF7D17"/><path d="M14.469 27.86c-.097.117-.19.235-.296.34l-6.26 6.71c-1.69 1.812-1.082 3.397 1.367 3.526l9.036.483c1.614.085 3.45.957 4.84 2.173 3.459-4.476 5.587-8.89 6.836-12.997-7.695 1.41-13.249.368-15.523-.236z" fill="#0056A4"/><path d="M29.992 28.09c3.843-.7 8.21-2.018 12.977-4.3-.795-1.57-1.212-3.43-1.005-4.967l1.224-9.203c.332-2.485-1.075-3.4-3.122-2.03l-7.589 5.059c-.36.243-.77.446-1.208.616a35.624 35.624 0 01-1.277 14.826z" fill="#FDC400"/><path d="M31.269 13.265a8.431 8.431 0 01-1.699.454c-1.674.272-3.486.097-4.824-.567l-8.149-4.038c-2.201-1.095-3.486-.004-2.85 2.42l2.348 8.972c.596 2.278-.134 5.477-1.63 7.354 2.278.604 7.832 1.646 15.527.235v-.004a35.624 35.624 0 001.277-14.826z" fill="#90BA1E"/><path d="M29.988 28.095c0-.004 0-.004 0 0 0-.004 0-.004 0 0-1.249 4.107-3.377 8.522-6.84 13.001l-.003-.004c.713.625 1.313 1.338 1.706 2.088l4.282 8.177c1.155 2.214 2.817 2.104 3.693-.24l3.239-8.67c.45-1.217 1.395-2.413 2.53-3.345-2.972-3.029-6.406-6.99-8.607-11.007z" fill="#AF1280"/></svg>