<svg width="86" height="86" viewBox="0 0 86 86" fill="none" xmlns="http://www.w3.org/2000/svg">
<path d="M67.1875 27.8291C64.4022 27.6038 61.7032 26.7556 59.2898 25.347C56.8764 23.9385 54.8104 22.0057 53.2443 19.6915C51.6782 17.3772 50.6522 14.7406 50.242 11.9765C49.8318 9.21247 50.0479 6.39155 50.8744 3.72221C50.9165 3.57027 50.9131 3.40931 50.8647 3.25925C50.8163 3.10919 50.7249 2.97662 50.602 2.87795C50.479 2.77928 50.3298 2.71883 50.1728 2.70409C50.0158 2.68935 49.8579 2.72097 49.7187 2.79503C47.2192 4.21208 45.081 6.18744 43.4706 8.567C41.8603 10.9466 40.8216 13.666 40.4354 16.5132C40.0492 19.3603 40.326 22.2582 41.2442 24.9807C42.1624 27.7033 43.6973 30.1769 45.7289 32.2086C47.7606 34.2402 50.2342 35.7751 52.9568 36.6933C55.6793 37.6115 58.5772 37.8883 61.4244 37.5021C64.2715 37.1159 66.9909 36.0772 69.3705 34.4669C71.7501 32.8566 73.7254 30.7183 75.1425 28.2188C75.2299 28.0789 75.2723 27.9156 75.264 27.7508C75.2557 27.586 75.1971 27.4278 75.096 27.2974C74.9949 27.1671 74.8563 27.0708 74.6988 27.0217C74.5413 26.9726 74.3726 26.973 74.2153 27.0228C71.9454 27.7365 69.56 28.0101 67.1875 27.8291Z" fill="#EFCC00"/>
<path d="M31.7933 21.3656C36.0698 21.3643 40.2656 22.5298 43.9287 24.7367C47.5919 26.9435 50.5834 30.1081 52.5811 33.8893C55.0348 32.4548 57.7864 31.6057 60.6218 31.4081C63.4572 31.2104 66.3 31.6696 68.929 32.7499C71.558 33.8302 73.9023 35.5025 75.7796 37.6366C77.6568 39.7707 79.0164 42.3092 79.7526 45.0545C80.4887 47.7998 80.5816 50.6779 80.0239 53.465C79.4663 56.252 78.2732 58.8728 76.5374 61.1235C74.8016 63.3742 72.5699 65.1941 70.0161 66.4417C67.4622 67.6892 64.6549 68.3307 61.8126 68.3162L31.7261 68.3969C25.4893 68.3969 19.5081 65.9193 15.098 61.5093C10.688 57.0992 8.21045 51.118 8.21045 44.8812C8.21045 38.6445 10.688 32.6632 15.098 28.2532C19.5081 23.8431 25.4893 21.3656 31.7261 21.3656H31.7933Z" fill="url(#paint0_linear)"/>
<path d="M79.6794 54.8102C82.4252 44.9822 76.6841 34.7892 66.8561 32.0433C57.0282 29.2974 46.8351 35.0386 44.0893 44.8666C41.3434 54.6945 47.0846 64.8876 56.9125 67.6334C66.7404 70.3793 76.9335 64.6381 79.6794 54.8102Z" fill="url(#paint1_linear)"/>
<path d="M43.1746 43.1344V56.7466" stroke="#9C9FA0" stroke-width="2" stroke-miterlimit="10" stroke-linecap="round"/>
<path d="M44.7469 41.374L43.1747 43.3493L41.5891 41.374" stroke="#9C9FA0" stroke-width="2" stroke-miterlimit="10" stroke-linecap="round"/>
<path d="M41.5891 58.5204L43.1747 56.545L44.7469 58.5204" stroke="#9C9FA0" stroke-width="2" stroke-miterlimit="10" stroke-linecap="round"/>
<path d="M49.0603 46.5341L37.2756 53.3469" stroke="#9C9FA0" stroke-width="2" stroke-miterlimit="10" stroke-linecap="round"/>
<path d="M51.3849 47.0313L48.8855 46.6416L49.7992 44.29" stroke="#9C9FA0" stroke-width="2" stroke-miterlimit="10" stroke-linecap="round"/>
<path d="M34.9509 52.8632L37.4503 53.2394L36.5366 55.6044" stroke="#9C9FA0" stroke-width="2" stroke-miterlimit="10" stroke-linecap="round"/>
<path d="M49.0603 53.3469L37.2756 46.5341" stroke="#9C9FA0" stroke-width="2" stroke-miterlimit="10" stroke-linecap="round"/>
<path d="M49.7992 55.6044L48.8855 53.2394L51.3849 52.8632" stroke="#9C9FA0" stroke-width="2" stroke-miterlimit="10" stroke-linecap="round"/>
<path d="M36.5366 44.29L37.4503 46.6416L34.9509 47.0313" stroke="#9C9FA0" stroke-width="2" stroke-miterlimit="10" stroke-linecap="round"/>
<path d="M35.6094 80.1278C37.0936 80.1278 38.2969 78.9246 38.2969 77.4403C38.2969 75.956 37.0936 74.7528 35.6094 74.7528C34.1251 74.7528 32.9219 75.956 32.9219 77.4403C32.9219 78.9246 34.1251 80.1278 35.6094 80.1278Z" fill="#C4C4C4"/>
<path d="M49.0469 83.4872C50.1601 83.4872 51.0625 82.5848 51.0625 81.4716C51.0625 80.3584 50.1601 79.4559 49.0469 79.4559C47.9337 79.4559 47.0312 80.3584 47.0312 81.4716C47.0312 82.5848 47.9337 83.4872 49.0469 83.4872Z" fill="#E0E0E0"/>
<path d="M24.8594 74.0809C25.9726 74.0809 26.875 73.1785 26.875 72.0653C26.875 70.9521 25.9726 70.0497 24.8594 70.0497C23.7462 70.0497 22.8438 70.9521 22.8438 72.0653C22.8438 73.1785 23.7462 74.0809 24.8594 74.0809Z" fill="#E0E0E0"/>
<path d="M43.6719 73.4091C44.414 73.4091 45.0156 72.8074 45.0156 72.0653C45.0156 71.3232 44.414 70.7216 43.6719 70.7216C42.9297 70.7216 42.3281 71.3232 42.3281 72.0653C42.3281 72.8074 42.9297 73.4091 43.6719 73.4091Z" fill="white"/>
<path d="M62.4844 82.8153C63.2265 82.8153 63.8281 82.2137 63.8281 81.4716C63.8281 80.7294 63.2265 80.1278 62.4844 80.1278C61.7422 80.1278 61.1406 80.7294 61.1406 81.4716C61.1406 82.2137 61.7422 82.8153 62.4844 82.8153Z" fill="white"/>
<path d="M23.5156 82.8153C24.2578 82.8153 24.8594 82.2137 24.8594 81.4716C24.8594 80.7294 24.2578 80.1278 23.5156 80.1278C22.7735 80.1278 22.1719 80.7294 22.1719 81.4716C22.1719 82.2137 22.7735 82.8153 23.5156 82.8153Z" fill="white"/>
<path d="M57.1094 76.0966C58.5936 76.0966 59.7969 74.8933 59.7969 73.4091C59.7969 71.9248 58.5936 70.7216 57.1094 70.7216C55.6251 70.7216 54.4219 71.9248 54.4219 73.4091C54.4219 74.8933 55.6251 76.0966 57.1094 76.0966Z" fill="#C4C4C4"/>
<defs>
<linearGradient id="paint0_linear" x1="25.8673" y1="70.399" x2="54.207" y2="33.7012" gradientUnits="userSpaceOnUse">
<stop stop-color="#F2F2F2"/>
<stop offset="1" stop-color="#CFCFCF"/>
</linearGradient>
<linearGradient id="paint1_linear" x1="69.4302" y1="43.2545" x2="48.0227" y2="61.8988" gradientUnits="userSpaceOnUse">
<stop offset="0.02" stop-color="white"/>
<stop offset="1" stop-color="white" stop-opacity="0"/>
</linearGradient>
</defs>
</svg>
