<svg width="86" height="86" viewBox="0 0 86 86" fill="none" xmlns="http://www.w3.org/2000/svg">
<path d="M55.4969 25.3969C51.2204 25.3955 47.0245 26.5611 43.3614 28.7679C39.6983 30.9748 36.7067 34.1393 34.7091 37.9206C32.2578 36.4874 29.5092 35.6385 26.6767 35.4397C23.8442 35.2409 21.0039 35.6977 18.3766 36.7745C15.7492 37.8513 13.4053 39.5192 11.527 41.6486C9.64863 43.7781 8.28636 46.3118 7.54595 49.053C6.80553 51.7943 6.70688 54.6693 7.25767 57.4549C7.80845 60.2404 8.99384 62.8616 10.7218 65.1148C12.4498 67.368 14.6738 69.1926 17.2212 70.4469C19.7686 71.7013 22.5708 72.3516 25.4103 72.3475L55.4969 72.4281C61.7336 72.4281 67.7149 69.9506 72.1249 65.5405C76.535 61.1305 79.0125 55.1492 79.0125 48.9125C79.0125 42.6757 76.535 36.6945 72.1249 32.2844C67.7149 27.8744 61.7336 25.3969 55.4969 25.3969Z" fill="url(#paint0_linear)"/>
<path d="M30.3954 71.6662C40.2234 68.9204 45.9645 58.7273 43.2187 48.8993C40.4728 39.0714 30.2797 33.3302 20.4518 36.0761C10.6239 38.822 4.8827 49.015 7.62856 58.843C10.3744 68.6709 20.5675 74.4121 30.3954 71.6662Z" fill="url(#paint1_linear)"/>
<defs>
<linearGradient id="paint0_linear" x1="61.4363" y1="74.4303" x2="33.0966" y2="37.7325" gradientUnits="userSpaceOnUse">
<stop stop-color="#F2F2F2"/>
<stop offset="1" stop-color="#CFCFCF"/>
</linearGradient>
<linearGradient id="paint1_linear" x1="17.8648" y1="47.2909" x2="39.2723" y2="65.9352" gradientUnits="userSpaceOnUse">
<stop offset="0.02" stop-color="white"/>
<stop offset="1" stop-color="white" stop-opacity="0"/>
</linearGradient>
</defs>
</svg>
