<svg width="86" height="86" viewBox="0 0 86 86" fill="none" xmlns="http://www.w3.org/2000/svg">
<path d="M12.7656 54.4219H48.6034C50.5636 54.4219 52.4434 55.2005 53.8294 56.5865C55.2154 57.9725 55.9941 59.8524 55.9941 61.8125C55.9941 63.7726 55.2154 65.6525 53.8294 67.0385C52.4434 68.4245 50.5636 69.2031 48.6034 69.2031" stroke="#A5A9AA" stroke-width="3" stroke-miterlimit="10" stroke-linecap="round"/>
<path d="M55.7656 22.1719C57.013 22.1719 58.2092 22.6674 59.0912 23.5494C59.9732 24.4314 60.4688 25.6277 60.4688 26.875C60.4688 28.1223 59.9732 29.3186 59.0912 30.2006C58.2092 31.0826 57.013 31.5781 55.7656 31.5781H12.7656" stroke="#A5A9AA" stroke-width="3" stroke-miterlimit="10" stroke-linecap="round"/>
<path d="M54.4219 43.6719H71.2187C72.1703 43.6719 73.0829 44.0499 73.7557 44.7227C74.4286 45.3956 74.8066 46.3081 74.8066 47.2597C74.803 48.2089 74.4234 49.118 73.751 49.788C73.0785 50.4579 72.168 50.8341 71.2187 50.8341" stroke="#B9C1C6" stroke-width="3" stroke-miterlimit="10" stroke-linecap="round"/>
<path d="M35.6094 43.6719H46.3594" stroke="#A5A9AA" stroke-width="3" stroke-miterlimit="10" stroke-linecap="round"/>
<path d="M12.7656 43.6719H27.5469" stroke="#B9C1C6" stroke-width="3" stroke-miterlimit="10" stroke-linecap="round"/>
</svg>
