<svg width="86" height="86" viewBox="0 0 86 86" fill="none" xmlns="http://www.w3.org/2000/svg">
<path d="M53.4813 46.4803C62.8247 46.4803 70.3991 38.9059 70.3991 29.5625C70.3991 20.219 62.8247 12.6447 53.4813 12.6447C44.1378 12.6447 36.5635 20.219 36.5635 29.5625C36.5635 38.9059 44.1378 46.4803 53.4813 46.4803Z" fill="#EFCC00"/>
<path d="M53.4812 2.6875V8.65375" stroke="#EFCC00" stroke-width="3" stroke-miterlimit="10" stroke-linecap="round"/>
<path d="M53.4812 50.4713V56.4376" stroke="#EFCC00" stroke-width="3" stroke-miterlimit="10" stroke-linecap="round"/>
<path d="M26.6062 29.5625H32.5859" stroke="#EFCC00" stroke-width="3" stroke-miterlimit="10" stroke-linecap="round"/>
<path d="M74.3901 29.5625H80.3564" stroke="#EFCC00" stroke-width="3" stroke-miterlimit="10" stroke-linecap="round"/>
<path d="M34.4807 10.5619L38.7001 14.7813" stroke="#EFCC00" stroke-width="3" stroke-miterlimit="10" stroke-linecap="round"/>
<path d="M68.2625 44.3438L72.4818 48.5631" stroke="#EFCC00" stroke-width="3" stroke-miterlimit="10" stroke-linecap="round"/>
<path d="M34.4807 48.5631L38.7001 44.3438" stroke="#EFCC00" stroke-width="3" stroke-miterlimit="10" stroke-linecap="round"/>
<path d="M68.2625 14.7813L72.4818 10.5619" stroke="#EFCC00" stroke-width="3" stroke-miterlimit="10" stroke-linecap="round"/>
<path d="M31.5781 21.3656C35.8615 21.357 40.0658 22.519 43.7367 24.7263C47.4075 26.9336 50.4054 30.1021 52.4062 33.8894C54.8575 32.4562 57.6061 31.6073 60.4386 31.4085C63.2712 31.2097 66.1114 31.6665 68.7388 32.7433C71.3662 33.8201 73.71 35.488 75.5884 37.6174C77.4667 39.7469 78.829 42.2806 79.5694 45.0218C80.3098 47.7631 80.4085 50.6381 79.8577 53.4237C79.3069 56.2092 78.1215 58.8304 76.3935 61.0836C74.6656 63.3368 72.4415 65.1614 69.8941 66.4157C67.3467 67.6701 64.5445 68.3204 61.705 68.3163L31.5781 68.3969C25.3414 68.3969 19.3601 65.9194 14.9501 61.5093C10.54 57.0993 8.0625 51.118 8.0625 44.8813C8.0625 38.6445 10.54 32.6633 14.9501 28.2532C19.3601 23.8432 25.3414 21.3656 31.5781 21.3656Z" fill="url(#paint0_linear)"/>
<path d="M79.4604 54.8023C82.2063 44.9743 76.4651 34.7812 66.6371 32.0354C56.8092 29.2895 46.6161 35.0307 43.8703 44.8586C41.1244 54.6866 46.8656 64.8796 56.6935 67.6255C66.5215 70.3714 76.7145 64.6302 79.4604 54.8023Z" fill="url(#paint1_linear)"/>
<path d="M43.1746 43.1344V56.7466" stroke="#9C9FA0" stroke-width="2" stroke-miterlimit="10" stroke-linecap="round"/>
<path d="M44.7469 41.374L43.1747 43.3493L41.5891 41.374" stroke="#9C9FA0" stroke-width="2" stroke-miterlimit="10" stroke-linecap="round"/>
<path d="M41.5891 58.5204L43.1747 56.545L44.7469 58.5204" stroke="#9C9FA0" stroke-width="2" stroke-miterlimit="10" stroke-linecap="round"/>
<path d="M49.0603 46.5341L37.2756 53.3469" stroke="#9C9FA0" stroke-width="2" stroke-miterlimit="10" stroke-linecap="round"/>
<path d="M51.3849 47.0313L48.8855 46.6416L49.7992 44.29" stroke="#9C9FA0" stroke-width="2" stroke-miterlimit="10" stroke-linecap="round"/>
<path d="M34.9509 52.8632L37.4503 53.2394L36.5366 55.6044" stroke="#9C9FA0" stroke-width="2" stroke-miterlimit="10" stroke-linecap="round"/>
<path d="M49.0603 53.3469L37.2756 46.5341" stroke="#9C9FA0" stroke-width="2" stroke-miterlimit="10" stroke-linecap="round"/>
<path d="M49.7992 55.6044L48.8855 53.2394L51.3849 52.8632" stroke="#9C9FA0" stroke-width="2" stroke-miterlimit="10" stroke-linecap="round"/>
<path d="M36.5366 44.29L37.4503 46.6416L34.9509 47.0313" stroke="#9C9FA0" stroke-width="2" stroke-miterlimit="10" stroke-linecap="round"/>
<path d="M35.6094 80.1278C37.0936 80.1278 38.2969 78.9246 38.2969 77.4403C38.2969 75.956 37.0936 74.7528 35.6094 74.7528C34.1251 74.7528 32.9219 75.956 32.9219 77.4403C32.9219 78.9246 34.1251 80.1278 35.6094 80.1278Z" fill="#C4C4C4"/>
<path d="M49.0469 83.4872C50.1601 83.4872 51.0625 82.5848 51.0625 81.4716C51.0625 80.3584 50.1601 79.4559 49.0469 79.4559C47.9337 79.4559 47.0312 80.3584 47.0312 81.4716C47.0312 82.5848 47.9337 83.4872 49.0469 83.4872Z" fill="#E0E0E0"/>
<path d="M24.8594 74.0809C25.9726 74.0809 26.875 73.1785 26.875 72.0653C26.875 70.9521 25.9726 70.0497 24.8594 70.0497C23.7462 70.0497 22.8438 70.9521 22.8438 72.0653C22.8438 73.1785 23.7462 74.0809 24.8594 74.0809Z" fill="#E0E0E0"/>
<path d="M43.6719 73.4091C44.414 73.4091 45.0156 72.8074 45.0156 72.0653C45.0156 71.3232 44.414 70.7216 43.6719 70.7216C42.9297 70.7216 42.3281 71.3232 42.3281 72.0653C42.3281 72.8074 42.9297 73.4091 43.6719 73.4091Z" fill="white"/>
<path d="M62.4844 82.8153C63.2265 82.8153 63.8281 82.2137 63.8281 81.4716C63.8281 80.7294 63.2265 80.1278 62.4844 80.1278C61.7422 80.1278 61.1406 80.7294 61.1406 81.4716C61.1406 82.2137 61.7422 82.8153 62.4844 82.8153Z" fill="white"/>
<path d="M23.5156 82.8153C24.2578 82.8153 24.8594 82.2137 24.8594 81.4716C24.8594 80.7294 24.2578 80.1278 23.5156 80.1278C22.7735 80.1278 22.1719 80.7294 22.1719 81.4716C22.1719 82.2137 22.7735 82.8153 23.5156 82.8153Z" fill="white"/>
<path d="M57.1094 76.0966C58.5936 76.0966 59.7969 74.8933 59.7969 73.4091C59.7969 71.9248 58.5936 70.7216 57.1094 70.7216C55.6251 70.7216 54.4219 71.9248 54.4219 73.4091C54.4219 74.8933 55.6251 76.0966 57.1094 76.0966Z" fill="#C4C4C4"/>
<defs>
<linearGradient id="paint0_linear" x1="25.6387" y1="70.3991" x2="53.9784" y2="33.7013" gradientUnits="userSpaceOnUse">
<stop stop-color="#F2F2F2"/>
<stop offset="1" stop-color="#CFCFCF"/>
</linearGradient>
<linearGradient id="paint1_linear" x1="69.2076" y1="43.2595" x2="47.8001" y2="61.9039" gradientUnits="userSpaceOnUse">
<stop offset="0.02" stop-color="white"/>
<stop offset="1" stop-color="white" stop-opacity="0"/>
</linearGradient>
</defs>
</svg>
