<svg width="86" height="86" fill="none" xmlns="http://www.w3.org/2000/svg"><path d="M54.247 20.438a13.913 13.913 0 1113.921 24.094c-6.651 3.843-18.65 3.574-22.48-3.077-3.83-6.652 1.908-17.173 8.56-21.017z" fill="url(#paint0_linear)"/><path d="M68.168 41.468a13.914 13.914 0 01-13.92 24.093c-6.72-3.843-12.43-14.364-8.587-21.016 3.843-6.651 15.856-6.92 22.507-3.077z" fill="url(#paint1_linear)"/><path d="M56.908 21.97c0 7.687-6.235 17.94-13.908 17.94-7.673 0-13.908-10.253-13.908-17.94a13.914 13.914 0 1127.83 0h-.014z" fill="url(#paint2_linear)"/><path d="M56.908 64.03a13.915 13.915 0 11-27.83 0c0-7.687 6.236-17.94 13.908-17.94 7.673 0 13.922 10.253 13.922 17.94z" fill="url(#paint3_linear)"/><path d="M31.753 20.438c6.719 3.844 12.43 14.365 8.587 21.017-3.844 6.651-15.857 6.92-22.508 3.077a13.914 13.914 0 0113.92-24.094z" fill="url(#paint4_linear)"/><path d="M17.831 41.468c6.652-3.843 18.652-3.574 22.481 3.077 3.83 6.652-1.935 17.173-8.586 21.016A13.908 13.908 0 0117.83 41.468z" fill="url(#paint5_linear)"/><path d="M43 56.908c7.681 0 13.908-6.227 13.908-13.908 0-7.681-6.227-13.908-13.908-13.908-7.681 0-13.908 6.227-13.908 13.908 0 7.681 6.227 13.908 13.908 13.908zM21.5 30.906a2.687 2.687 0 100-5.375 2.687 2.687 0 000 5.375zm1.344 38.969a2.687 2.687 0 100-5.375 2.687 2.687 0 000 5.375zm44.344-47.031a2.688 2.688 0 100-5.375 2.688 2.688 0 000 5.375z" fill="#EFCC00"/><path d="M21.5 14.11a2.016 2.016 0 100-4.032 2.016 2.016 0 000 4.031zM8.063 43.672a2.016 2.016 0 100-4.031 2.016 2.016 0 000 4.03zm52.406-30.906a2.016 2.016 0 100-4.032 2.016 2.016 0 000 4.032z" fill="#fff"/><defs><linearGradient id="paint0_linear" x1="47.461" y1="39.103" x2="75.116" y2="25.8" gradientUnits="userSpaceOnUse"><stop offset=".02" stop-color="#F7563C"/><stop offset="1" stop-color="#D43217"/></linearGradient><linearGradient id="paint1_linear" x1="1096.54" y1="1064.02" x2="1750.35" y2="1300.88" gradientUnits="userSpaceOnUse"><stop offset=".02" stop-color="#F7563C"/><stop offset="1" stop-color="#D43217"/></linearGradient><linearGradient id="paint2_linear" x1="1000.88" y1="823.189" x2="779.482" y2="223.717" gradientUnits="userSpaceOnUse"><stop offset=".02" stop-color="#F7563C"/><stop offset="1" stop-color="#D43217"/></linearGradient><linearGradient id="paint3_linear" x1="786.029" y1="1362.6" x2="1222.39" y2="1802.59" gradientUnits="userSpaceOnUse"><stop offset=".02" stop-color="#F7563C"/><stop offset="1" stop-color="#D43217"/></linearGradient><linearGradient id="paint4_linear" x1="849.318" y1="893.369" x2="316.886" y2="467.66" gradientUnits="userSpaceOnUse"><stop offset=".02" stop-color="#F7563C"/><stop offset="1" stop-color="#D43217"/></linearGradient><linearGradient id="paint5_linear" x1="620.635" y1="1028.46" x2="535.526" y2="1671.24" gradientUnits="userSpaceOnUse"><stop offset=".02" stop-color="#F7563C"/><stop offset="1" stop-color="#D43217"/></linearGradient></defs></svg>