<svg width="86" height="86" viewBox="0 0 86 86" fill="none" xmlns="http://www.w3.org/2000/svg">
<path d="M54.2472 20.4384C57.4421 18.5923 61.2396 18.0911 64.8042 19.0449C66.5692 19.5172 68.2239 20.3325 69.6738 21.4443C71.1237 22.556 72.3404 23.9425 73.2545 25.5245C74.1686 27.1065 74.7621 28.8531 75.0012 30.6644C75.2403 32.4758 75.1203 34.3166 74.648 36.0815C74.1757 37.8465 73.3604 39.5012 72.2486 40.9511C71.1369 42.401 69.7504 43.6178 68.1684 44.5319C61.5168 48.375 49.5172 48.1062 45.6875 41.4547C41.8578 34.8031 47.5956 24.2815 54.2472 20.4384Z" fill="url(#paint0_linear)"/>
<path d="M68.1685 41.4681C69.7505 42.3822 71.1369 43.5989 72.2487 45.0488C73.3605 46.4987 74.1758 48.1534 74.6481 49.9184C75.1204 51.6834 75.2404 53.5241 75.0013 55.3355C74.7622 57.1469 74.1686 58.8934 73.2546 60.4754C72.3405 62.0574 71.1238 63.4439 69.6738 64.5557C68.2239 65.6674 66.5693 66.4827 64.8043 66.955C63.0393 67.4273 61.1985 67.5473 59.3871 67.3082C57.5758 67.0691 55.8292 66.4756 54.2472 65.5615C47.5285 61.7184 41.8175 51.1968 45.6607 44.5453C49.5038 37.8937 61.5169 37.6249 68.1685 41.4681Z" fill="url(#paint1_linear)"/>
<path d="M56.9079 21.9703C56.9079 29.6566 50.6729 39.9094 43.0001 39.9094C35.3273 39.9094 29.0923 29.6566 29.0923 21.9703C29.0923 18.28 30.5583 14.7407 33.1678 12.1313C35.7772 9.52178 39.3165 8.05579 43.0068 8.05579C46.6972 8.05579 50.2364 9.52178 52.8459 12.1313C55.4554 14.7407 56.9213 18.28 56.9213 21.9703H56.9079Z" fill="url(#paint2_linear)"/>
<path d="M56.9077 64.0296C56.9077 67.72 55.4417 71.2592 52.8322 73.8687C50.2227 76.4782 46.6835 77.9442 42.9931 77.9442C39.3028 77.9442 35.7636 76.4782 33.1541 73.8687C30.5446 71.2592 29.0786 67.72 29.0786 64.0296C29.0786 56.3434 35.3136 46.0906 42.9864 46.0906C50.6592 46.0906 56.9077 56.3434 56.9077 64.0296Z" fill="url(#paint3_linear)"/>
<path d="M31.7529 20.4384C38.4716 24.2815 44.1826 34.8031 40.3395 41.4547C36.4963 48.1062 24.4832 48.375 17.8316 44.5319C14.6367 42.6858 12.3059 39.6461 11.352 36.0815C10.3982 32.517 10.8995 28.7195 12.7455 25.5245C14.5916 22.3295 17.6313 19.9987 21.1959 19.0449C24.7604 18.0911 28.5579 18.5923 31.7529 20.4384Z" fill="url(#paint4_linear)"/>
<path d="M17.8315 41.4681C24.483 37.6249 36.4827 37.8937 40.3124 44.5453C44.1421 51.1968 38.3774 61.7184 31.7258 65.5615C28.5346 67.3409 24.7714 67.793 21.2495 66.8201C17.7276 65.8472 14.7301 63.5275 12.9048 60.3623C11.0795 57.1971 10.573 53.4408 11.4949 49.9052C12.4168 46.3697 14.693 43.3389 17.8315 41.4681Z" fill="url(#paint5_linear)"/>
<path d="M43.0001 56.9078C50.6812 56.9078 56.9079 50.6811 56.9079 43C56.9079 35.3189 50.6812 29.0922 43.0001 29.0922C35.319 29.0922 29.0923 35.3189 29.0923 43C29.0923 50.6811 35.319 56.9078 43.0001 56.9078Z" fill="#EFCC00"/>
<path d="M21.5 30.9062C22.9843 30.9062 24.1875 29.703 24.1875 28.2188C24.1875 26.7345 22.9843 25.5312 21.5 25.5312C20.0157 25.5312 18.8125 26.7345 18.8125 28.2188C18.8125 29.703 20.0157 30.9062 21.5 30.9062Z" fill="#EFCC00"/>
<path d="M22.8438 69.875C24.328 69.875 25.5312 68.6718 25.5312 67.1875C25.5312 65.7032 24.328 64.5 22.8438 64.5C21.3595 64.5 20.1562 65.7032 20.1562 67.1875C20.1562 68.6718 21.3595 69.875 22.8438 69.875Z" fill="#EFCC00"/>
<path d="M67.1875 22.8438C68.6718 22.8438 69.875 21.6405 69.875 20.1562C69.875 18.672 68.6718 17.4688 67.1875 17.4688C65.7032 17.4688 64.5 18.672 64.5 20.1562C64.5 21.6405 65.7032 22.8438 67.1875 22.8438Z" fill="#EFCC00"/>
<path d="M21.5 14.1094C22.6132 14.1094 23.5156 13.2069 23.5156 12.0938C23.5156 10.9806 22.6132 10.0781 21.5 10.0781C20.3868 10.0781 19.4844 10.9806 19.4844 12.0938C19.4844 13.2069 20.3868 14.1094 21.5 14.1094Z" fill="white"/>
<path d="M8.0625 43.6719C9.1757 43.6719 10.0781 42.7694 10.0781 41.6562C10.0781 40.5431 9.1757 39.6406 8.0625 39.6406C6.9493 39.6406 6.04688 40.5431 6.04688 41.6562C6.04688 42.7694 6.9493 43.6719 8.0625 43.6719Z" fill="white"/>
<path d="M60.4688 12.7656C61.5819 12.7656 62.4844 11.8632 62.4844 10.75C62.4844 9.6368 61.5819 8.73438 60.4688 8.73438C59.3556 8.73438 58.4531 9.6368 58.4531 10.75C58.4531 11.8632 59.3556 12.7656 60.4688 12.7656Z" fill="white"/>
<defs>
<linearGradient id="paint0_linear" x1="47.4612" y1="39.1031" x2="75.1156" y2="25.8" gradientUnits="userSpaceOnUse">
<stop offset="0.02" stop-color="#F7563C"/>
<stop offset="1" stop-color="#D43217"/>
</linearGradient>
<linearGradient id="paint1_linear" x1="1096.54" y1="1064.02" x2="1750.35" y2="1300.88" gradientUnits="userSpaceOnUse">
<stop offset="0.02" stop-color="#F7563C"/>
<stop offset="1" stop-color="#D43217"/>
</linearGradient>
<linearGradient id="paint2_linear" x1="1000.88" y1="823.189" x2="779.482" y2="223.717" gradientUnits="userSpaceOnUse">
<stop offset="0.02" stop-color="#F7563C"/>
<stop offset="1" stop-color="#D43217"/>
</linearGradient>
<linearGradient id="paint3_linear" x1="786.029" y1="1362.6" x2="1222.39" y2="1802.59" gradientUnits="userSpaceOnUse">
<stop offset="0.02" stop-color="#F7563C"/>
<stop offset="1" stop-color="#D43217"/>
</linearGradient>
<linearGradient id="paint4_linear" x1="849.318" y1="893.369" x2="316.886" y2="467.66" gradientUnits="userSpaceOnUse">
<stop offset="0.02" stop-color="#F7563C"/>
<stop offset="1" stop-color="#D43217"/>
</linearGradient>
<linearGradient id="paint5_linear" x1="620.635" y1="1028.46" x2="535.526" y2="1671.24" gradientUnits="userSpaceOnUse">
<stop offset="0.02" stop-color="#F7563C"/>
<stop offset="1" stop-color="#D43217"/>
</linearGradient>
</defs>
</svg>
