<svg width="86" height="86" viewBox="0 0 86 86" fill="none" xmlns="http://www.w3.org/2000/svg">
<path d="M59.8507 55.7253C55.2412 55.3401 50.7771 53.9251 46.7873 51.5848C42.7976 49.2445 39.3841 46.0385 36.7984 42.2032C34.2127 38.3679 32.5209 34.0011 31.8477 29.4249C31.1744 24.8487 31.5369 20.1797 32.9085 15.7622C32.9894 15.4998 32.988 15.2188 32.9044 14.9572C32.8209 14.6955 32.6591 14.4658 32.441 14.2989C32.2228 14.132 31.9588 14.0359 31.6844 14.0237C31.41 14.0114 31.1384 14.0836 30.9063 14.2303C26.7961 16.5978 23.2859 19.8796 20.6477 23.8215C18.0094 27.7633 16.3139 32.2596 15.6924 36.962C15.0709 41.6644 15.54 46.4467 17.0636 50.9387C18.5871 55.4306 21.1241 59.5117 24.4781 62.8657C27.8322 66.2197 31.9132 68.7567 36.4051 70.2802C40.8971 71.8038 45.6794 72.273 50.3818 71.6514C55.0842 71.0299 59.5805 69.3344 63.5224 66.6961C67.4643 64.0579 70.746 60.5478 73.1135 56.4375C73.2509 56.2056 73.3155 55.9378 73.2987 55.6687C73.2819 55.3996 73.1846 55.1418 73.0194 54.9288C72.8542 54.7158 72.6288 54.5574 72.3723 54.4742C72.1159 54.391 71.8404 54.3868 71.5816 54.4622C67.7883 55.6307 63.8058 56.0595 59.8507 55.7253Z" fill="#EFCC00"/>
</svg>
