<svg width="86" height="86" fill="none" xmlns="http://www.w3.org/2000/svg"><path d="M59.85 55.725a30.906 30.906 0 01-26.942-39.963 1.343 1.343 0 00-2.002-1.532 30.907 30.907 0 1042.207 42.207 1.343 1.343 0 00-1.531-1.975 30.986 30.986 0 01-11.731 1.263z" fill="#EFCC00"/><path d="M68.867 62.135H54.086a27.117 27.117 0 01-21.5-13.102H16.46a30.906 30.906 0 0052.406 13.089v.013z" fill="#E0E0E0"/><path d="M34.266 49.047H14.553m-1.733 6.719h13.007m-15.279 6.718h61.826" stroke="#B9C1C6" stroke-width="3" stroke-miterlimit="10" stroke-linecap="round"/><path d="M46.346 69.203H74.78" stroke="#A5A9AA" stroke-width="3" stroke-miterlimit="10" stroke-linecap="round"/><path d="M15.923 69.203h20.761" stroke="#B9C1C6" stroke-width="3" stroke-miterlimit="10" stroke-linecap="round"/><path d="M35.475 75.922h26.002m-40.461 0h6.02" stroke="#A5A9AA" stroke-width="3" stroke-miterlimit="10" stroke-linecap="round"/><path d="M33.07 55.766h8.439" stroke="#B9C1C6" stroke-width="3" stroke-miterlimit="10" stroke-linecap="round"/></svg>