<svg width="86" height="86" fill="none" xmlns="http://www.w3.org/2000/svg"><path d="M67.188 35.892a18.65 18.65 0 01-16.314-24.107.806.806 0 00-1.155-.928 18.652 18.652 0 1025.423 25.424.807.807 0 00-.927-1.196 18.69 18.69 0 01-7.028.807z" fill="#EFCC00"/><path d="M31.793 29.428a23.502 23.502 0 0120.788 12.524 18.475 18.475 0 119.232 34.427l-30.087.08a23.516 23.516 0 010-47.03h.067z" fill="url(#paint0_linear)"/><path d="M79.678 62.879c2.746-9.828-2.996-20.021-12.824-22.767-9.828-2.746-20.02 2.995-22.767 12.823-2.745 9.828 2.996 20.021 12.824 22.767 9.828 2.746 20.02-2.995 22.767-12.823z" fill="url(#paint1_linear)"/><defs><linearGradient id="paint0_linear" x1="25.867" y1="78.462" x2="54.207" y2="41.764" gradientUnits="userSpaceOnUse"><stop stop-color="#F2F2F2"/><stop offset="1" stop-color="#CFCFCF"/></linearGradient><linearGradient id="paint1_linear" x1="69.438" y1="51.34" x2="48.021" y2="69.967" gradientUnits="userSpaceOnUse"><stop offset=".02" stop-color="#fff"/><stop offset="1" stop-color="#fff" stop-opacity="0"/></linearGradient></defs></svg>