<svg width="86" height="86" viewBox="0 0 86 86" fill="none" xmlns="http://www.w3.org/2000/svg">
<path d="M67.1875 35.8916C64.4022 35.6663 61.7032 34.8181 59.2898 33.4095C56.8764 32.001 54.8104 30.0682 53.2443 27.754C51.6782 25.4397 50.6522 22.8031 50.242 20.039C49.8318 17.275 50.0479 14.454 50.8744 11.7847C50.9165 11.6328 50.9131 11.4718 50.8647 11.3218C50.8163 11.1717 50.7249 11.0391 50.602 10.9405C50.479 10.8418 50.3298 10.7813 50.1728 10.7666C50.0158 10.7519 49.8579 10.7835 49.7187 10.8575C47.2192 12.2746 45.081 14.2499 43.4706 16.6295C41.8603 19.0091 40.8216 21.7285 40.4354 24.5757C40.0492 27.4228 40.326 30.3207 41.2442 33.0432C42.1624 35.7658 43.6973 38.2394 45.7289 40.2711C47.7606 42.3027 50.2342 43.8376 52.9568 44.7558C55.6793 45.674 58.5772 45.9508 61.4244 45.5646C64.2715 45.1784 66.9909 44.1397 69.3705 42.5294C71.7501 40.9191 73.7254 38.7808 75.1425 36.2813C75.2299 36.1414 75.2723 35.9781 75.264 35.8133C75.2557 35.6485 75.1971 35.4903 75.096 35.3599C74.9949 35.2296 74.8563 35.1333 74.6988 35.0842C74.5413 35.0351 74.3726 35.0355 74.2153 35.0853C71.9454 35.799 69.56 36.0726 67.1875 35.8916Z" fill="#EFCC00"/>
<path d="M31.7933 29.4281C36.0698 29.4268 40.2656 30.5923 43.9287 32.7992C47.5919 35.006 50.5834 38.1706 52.5811 41.9519C55.0348 40.5173 57.7864 39.6682 60.6218 39.4706C63.4572 39.2729 66.3 39.7321 68.929 40.8124C71.558 41.8927 73.9023 43.565 75.7796 45.6991C77.6568 47.8332 79.0164 50.3717 79.7526 53.117C80.4887 55.8623 80.5816 58.7404 80.0239 61.5275C79.4663 64.3145 78.2732 66.9353 76.5374 69.186C74.8016 71.4367 72.5699 73.2567 70.0161 74.5042C67.4622 75.7517 64.6549 76.3932 61.8126 76.3787L31.7261 76.4594C25.4893 76.4594 19.5081 73.9818 15.098 69.5718C10.688 65.1618 8.21045 59.1805 8.21045 52.9437C8.21045 46.707 10.688 40.7257 15.098 36.3157C19.5081 31.9056 25.4893 29.4281 31.7261 29.4281H31.7933Z" fill="url(#paint0_linear)"/>
<path d="M79.6777 62.8787C82.4235 53.0508 76.6824 42.8577 66.8544 40.1118C57.0265 37.366 46.8334 43.1072 44.0875 52.9351C41.3417 62.763 47.0828 72.9561 56.9108 75.702C66.7387 78.4478 76.9318 72.7067 79.6777 62.8787Z" fill="url(#paint1_linear)"/>
<defs>
<linearGradient id="paint0_linear" x1="25.8673" y1="78.4615" x2="54.207" y2="41.7637" gradientUnits="userSpaceOnUse">
<stop stop-color="#F2F2F2"/>
<stop offset="1" stop-color="#CFCFCF"/>
</linearGradient>
<linearGradient id="paint1_linear" x1="69.4378" y1="51.3396" x2="48.021" y2="69.9674" gradientUnits="userSpaceOnUse">
<stop offset="0.02" stop-color="white"/>
<stop offset="1" stop-color="white" stop-opacity="0"/>
</linearGradient>
</defs>
</svg>
