<svg width="86" height="86" fill="none" xmlns="http://www.w3.org/2000/svg"><path d="M43 65.844c12.616 0 22.844-10.228 22.844-22.844 0-12.616-10.228-22.844-22.844-22.844-12.616 0-22.844 10.228-22.844 22.844 0 12.616 10.228 22.844 22.844 22.844z" fill="#EFCC00"/><path d="M43 6.719v8.062M79.281 43H71.22m-56.439 0H6.72m61.932-25.652l-5.697 5.697m-39.91 0l-5.697-5.697" stroke="#EFCC00" stroke-width="3" stroke-miterlimit="10" stroke-linecap="round"/><path d="M54.086 62.148a27.117 27.117 0 01-21.5-13.101H20.99a22.844 22.844 0 0034.238 13.222c-.39-.04-.752-.094-1.142-.12z" fill="#E0E0E0"/><path d="M34.266 49.047H18.584m-8.452 6.719h15.695m-19.31 6.718h65.857" stroke="#B9C1C6" stroke-width="3" stroke-miterlimit="10" stroke-linecap="round"/><path d="M46.346 69.203H74.78" stroke="#A5A9AA" stroke-width="3" stroke-miterlimit="10" stroke-linecap="round"/><path d="M6.517 69.203h30.167" stroke="#B9C1C6" stroke-width="3" stroke-miterlimit="10" stroke-linecap="round"/><path d="M35.475 75.922h26.002m-52.555 0h18.114" stroke="#A5A9AA" stroke-width="3" stroke-miterlimit="10" stroke-linecap="round"/><path d="M33.07 55.766h8.439" stroke="#B9C1C6" stroke-width="3" stroke-miterlimit="10" stroke-linecap="round"/></svg>