<svg width="86" height="86" viewBox="0 0 86 86" fill="none" xmlns="http://www.w3.org/2000/svg">
<path d="M40.5276 15.4666L9.19137 69.7407C8.94209 70.1752 8.8112 70.6674 8.81177 71.1684C8.81234 71.6693 8.94436 72.1613 9.19464 72.5952C9.44492 73.0291 9.80468 73.3897 10.238 73.641C10.6713 73.8923 11.163 74.0255 11.6639 74.0272H74.3364C74.8373 74.0255 75.3289 73.8923 75.7623 73.641C76.1956 73.3897 76.5553 73.0291 76.8056 72.5952C77.0559 72.1613 77.1879 71.6693 77.1885 71.1684C77.189 70.6674 77.0582 70.1752 76.8089 69.7407L45.4726 15.4666C45.2206 15.0344 44.8597 14.6758 44.4258 14.4266C43.992 14.1774 43.5004 14.0463 43.0001 14.0463C42.4998 14.0463 42.0082 14.1774 41.5744 14.4266C41.1406 14.6758 40.7797 15.0344 40.5276 15.4666Z" fill="#EFCC00"/>
<path d="M38.9688 61.8125C38.9688 61.0152 39.2053 60.2358 39.6482 59.5729C40.0912 58.91 40.7208 58.3933 41.4574 58.0881C42.194 57.783 43.0046 57.7032 43.7865 57.8587C44.5685 58.0143 45.2868 58.3982 45.8506 58.962C46.4144 59.5258 46.7983 60.2441 46.9539 61.0261C47.1094 61.8081 47.0296 62.6186 46.7245 63.3552C46.4194 64.0918 45.9027 64.7214 45.2397 65.1644C44.5768 65.6074 43.7974 65.8438 43.0001 65.8438C42.4646 65.8666 41.9302 65.7779 41.4308 65.5834C40.9314 65.3889 40.4778 65.0928 40.0988 64.7138C39.7198 64.3348 39.4237 63.8812 39.2292 63.3818C39.0347 62.8824 38.946 62.348 38.9688 61.8125ZM40.4335 55.5507L39.4123 35.3944H46.4804L45.4995 55.5507H40.4335Z" fill="#353535"/>
</svg>
