<svg width="86" height="86" fill="none" xmlns="http://www.w3.org/2000/svg"><path d="M31.793 13.303a23.502 23.502 0 0120.788 12.524 18.477 18.477 0 119.232 34.427l-30.087.08a23.516 23.516 0 010-47.03h.067z" fill="url(#paint0_linear)"/><path d="M79.681 46.755c2.746-9.828-2.995-20.021-12.823-22.767-9.828-2.746-20.021 2.995-22.767 12.823-2.746 9.828 2.995 20.021 12.823 22.767 9.828 2.746 20.021-2.995 22.767-12.823z" fill="url(#paint1_linear)"/><path d="M43.175 36.416v13.612m1.572-15.373l-1.572 1.976-1.586-1.976m.001 17.147l1.585-1.976 1.572 1.976m4.313-11.987l-11.784 6.813m14.109-6.315l-2.5-.39.914-2.352M34.95 46.144l2.5.377-.913 2.365m12.523-2.258l-11.784-6.813M49.8 48.886l-.914-2.365 2.499-.377m-14.848-8.573l.913 2.352-2.5.39" stroke="#9C9FA0" stroke-width="2" stroke-miterlimit="10" stroke-linecap="round"/><path d="M35.61 73.41a2.688 2.688 0 100-5.376 2.688 2.688 0 000 5.375z" fill="#C4C4C4"/><path d="M49.047 76.768a2.016 2.016 0 100-4.03 2.016 2.016 0 000 4.03zM24.86 67.362a2.016 2.016 0 100-4.031 2.016 2.016 0 000 4.031z" fill="#E0E0E0"/><path d="M43.672 66.69a1.344 1.344 0 100-2.687 1.344 1.344 0 000 2.687zm18.812 9.407a1.344 1.344 0 100-2.688 1.344 1.344 0 000 2.688zm-38.968 0a1.344 1.344 0 100-2.688 1.344 1.344 0 000 2.688z" fill="#fff"/><path d="M57.11 69.378a2.688 2.688 0 100-5.375 2.688 2.688 0 000 5.375z" fill="#C4C4C4"/><defs><linearGradient id="paint0_linear" x1="25.867" y1="62.337" x2="54.207" y2="25.639" gradientUnits="userSpaceOnUse"><stop stop-color="#F2F2F2"/><stop offset="1" stop-color="#CFCFCF"/></linearGradient><linearGradient id="paint1_linear" x1="69.445" y1="35.203" x2="48.024" y2="53.844" gradientUnits="userSpaceOnUse"><stop offset=".02" stop-color="#fff"/><stop offset="1" stop-color="#fff" stop-opacity="0"/></linearGradient></defs></svg>