<svg width="86" height="86" fill="none" xmlns="http://www.w3.org/2000/svg"><path d="M53.481 46.48c9.344 0 16.918-7.574 16.918-16.917 0-9.344-7.574-16.918-16.918-16.918-9.343 0-16.918 7.574-16.918 16.918 0 9.343 7.575 16.917 16.918 16.917z" fill="#EFCC00"/><path d="M53.481 2.688v5.966m0 41.817v5.967M26.606 29.563h5.98m41.804 0h5.966M34.48 10.562l4.22 4.22m29.563 29.562l4.219 4.22m-38.002-.001l4.22-4.22m29.563-29.562l4.219-4.22" stroke="#EFCC00" stroke-width="3" stroke-miterlimit="10" stroke-linecap="round"/><path d="M31.578 21.366a23.503 23.503 0 0120.828 12.523 18.477 18.477 0 119.299 34.427l-30.127.08a23.515 23.515 0 110-47.03z" fill="url(#paint0_linear)"/><path d="M79.46 54.802c2.746-9.828-2.995-20.02-12.823-22.767-9.828-2.745-20.02 2.996-22.767 12.824-2.746 9.828 2.996 20.02 12.824 22.767 9.828 2.745 20.02-2.996 22.766-12.824z" fill="url(#paint1_linear)"/><path d="M43.175 43.134v13.613m1.572-15.373l-1.572 1.975-1.586-1.975m.001 17.146l1.585-1.975 1.572 1.975m4.313-11.986l-11.784 6.813m14.109-6.316l-2.5-.39.914-2.351M34.95 52.863l2.5.376-.913 2.365m12.523-2.257l-11.784-6.813m12.524 9.07l-.914-2.365 2.499-.376M36.537 44.29l.913 2.352-2.5.39" stroke="#9C9FA0" stroke-width="2" stroke-miterlimit="10" stroke-linecap="round"/><path d="M35.61 80.128a2.688 2.688 0 100-5.375 2.688 2.688 0 000 5.375z" fill="#C4C4C4"/><path d="M49.047 83.487a2.016 2.016 0 100-4.031 2.016 2.016 0 000 4.031zM24.86 74.08a2.016 2.016 0 100-4.03 2.016 2.016 0 000 4.03z" fill="#E0E0E0"/><path d="M43.672 73.41a1.344 1.344 0 100-2.688 1.344 1.344 0 000 2.687zm18.812 9.405a1.344 1.344 0 100-2.687 1.344 1.344 0 000 2.687zm-38.968 0a1.344 1.344 0 100-2.687 1.344 1.344 0 000 2.687z" fill="#fff"/><path d="M57.11 76.097a2.688 2.688 0 100-5.376 2.688 2.688 0 000 5.376z" fill="#C4C4C4"/><defs><linearGradient id="paint0_linear" x1="25.639" y1="70.399" x2="53.978" y2="33.701" gradientUnits="userSpaceOnUse"><stop stop-color="#F2F2F2"/><stop offset="1" stop-color="#CFCFCF"/></linearGradient><linearGradient id="paint1_linear" x1="69.208" y1="43.26" x2="47.8" y2="61.904" gradientUnits="userSpaceOnUse"><stop offset=".02" stop-color="#fff"/><stop offset="1" stop-color="#fff" stop-opacity="0"/></linearGradient></defs></svg>