<svg width="86" height="86" fill="none" xmlns="http://www.w3.org/2000/svg"><path d="M43 19.484v47.032m5.47-53.132L43 20.21l-5.469-6.826m0 59.232l5.47-6.826 5.468 6.826m11.153-46.238L26.378 59.622m41.428-33.688l-8.681.941.94-8.68M18.194 60.066l8.681-.941-.94 8.68M66.516 43H19.484m53.132 5.47L65.79 43l6.826-5.47m-59.232 0L20.21 43l-6.826 5.47m46.238 11.152L26.378 26.378m33.688 41.428l-.941-8.681 8.68.94M25.934 18.194l.941 8.681-8.68-.94m25.147-.379L26.24 42.66l17.103 17.103L60.446 42.66 43.342 25.556z" stroke="#B9C1C6" stroke-width="3" stroke-miterlimit="10" stroke-linecap="round"/></svg>