<svg width="86" height="86" fill="none" xmlns="http://www.w3.org/2000/svg"><path d="M31.793 13.303a23.502 23.502 0 0120.788 12.524 18.477 18.477 0 119.232 34.427l-30.087.08a23.516 23.516 0 010-47.03h.067z" fill="url(#paint0_linear)"/><path d="M79.681 46.755c2.746-9.828-2.995-20.021-12.823-22.767-9.828-2.746-20.021 2.995-22.767 12.823-2.746 9.828 2.995 20.021 12.823 22.767 9.828 2.746 20.021-2.995 22.767-12.823z" fill="url(#paint1_linear)"/><path d="M50.847 66.516H64.58" stroke="#A5A9AA" stroke-width="3" stroke-miterlimit="10" stroke-linecap="round"/><path d="M21.42 66.516h22.574" stroke="#B9C1C6" stroke-width="3" stroke-miterlimit="10" stroke-linecap="round"/><path d="M44.653 73.234h15.211m-33.043 0h10.334" stroke="#A5A9AA" stroke-width="3" stroke-miterlimit="10" stroke-linecap="round"/><defs><linearGradient id="paint0_linear" x1="25.867" y1="62.337" x2="54.207" y2="25.639" gradientUnits="userSpaceOnUse"><stop stop-color="#F2F2F2"/><stop offset="1" stop-color="#CFCFCF"/></linearGradient><linearGradient id="paint1_linear" x1="69.441" y1="35.216" x2="48.037" y2="53.847" gradientUnits="userSpaceOnUse"><stop offset=".02" stop-color="#fff"/><stop offset="1" stop-color="#fff" stop-opacity="0"/></linearGradient></defs></svg>