<svg width="86" height="86" fill="none" xmlns="http://www.w3.org/2000/svg"><path d="M43.672 67.86v1.343m-8.062-4.031v1.344m16.124-1.344v1.344m0 6.718v1.344M35.61 73.234v1.344m8.062 1.344v1.344" stroke="#0BAEFF" stroke-width="3" stroke-miterlimit="10" stroke-linecap="round"/><path d="M31.793 13.303a23.502 23.502 0 0120.788 12.524 18.477 18.477 0 119.232 34.427l-30.087.08a23.516 23.516 0 010-47.03h.067z" fill="url(#paint0_linear)"/><path d="M79.681 46.755c2.746-9.828-2.995-20.021-12.823-22.767-9.828-2.746-20.021 2.995-22.767 12.823-2.746 9.828 2.995 20.021 12.823 22.767 9.828 2.746 20.021-2.995 22.767-12.823z" fill="url(#paint1_linear)"/><defs><linearGradient id="paint0_linear" x1="25.867" y1="62.337" x2="54.207" y2="25.639" gradientUnits="userSpaceOnUse"><stop stop-color="#F2F2F2"/><stop offset="1" stop-color="#CFCFCF"/></linearGradient><linearGradient id="paint1_linear" x1="69.428" y1="35.212" x2="48.021" y2="53.857" gradientUnits="userSpaceOnUse"><stop offset=".02" stop-color="#fff"/><stop offset="1" stop-color="#fff" stop-opacity="0"/></linearGradient></defs></svg>