<svg width="86" height="86" fill="none" xmlns="http://www.w3.org/2000/svg"><path d="M53.481 54.543c9.344 0 16.918-7.575 16.918-16.918s-7.574-16.918-16.918-16.918c-9.343 0-16.918 7.575-16.918 16.918s7.575 16.918 16.918 16.918z" fill="#EFCC00"/><path d="M53.481 10.75v5.966m0 41.818V64.5M26.606 37.625h5.98m41.804 0h5.966M34.48 18.624l4.22 4.22m29.563 29.562l4.219 4.22m-38.002 0l4.22-4.22m29.563-29.562l4.219-4.22" stroke="#EFCC00" stroke-width="3" stroke-miterlimit="10" stroke-linecap="round"/><path d="M31.578 29.428a23.503 23.503 0 0120.828 12.524 18.477 18.477 0 119.299 34.427l-30.127.08a23.515 23.515 0 110-47.03z" fill="url(#paint0_linear)"/><path d="M79.459 62.87c2.745-9.827-2.996-20.02-12.824-22.766-9.828-2.746-20.02 2.995-22.767 12.823-2.745 9.828 2.996 20.021 12.824 22.767 9.828 2.746 20.02-2.995 22.767-12.823z" fill="url(#paint1_linear)"/><defs><linearGradient id="paint0_linear" x1="25.639" y1="78.462" x2="53.978" y2="41.764" gradientUnits="userSpaceOnUse"><stop stop-color="#F2F2F2"/><stop offset="1" stop-color="#CFCFCF"/></linearGradient><linearGradient id="paint1_linear" x1="69.206" y1="51.328" x2="47.798" y2="69.972" gradientUnits="userSpaceOnUse"><stop offset=".02" stop-color="#fff"/><stop offset="1" stop-color="#fff" stop-opacity="0"/></linearGradient></defs></svg>