<svg width="86" height="86" fill="none" xmlns="http://www.w3.org/2000/svg"><path d="M67.188 27.83A18.65 18.65 0 0150.873 3.721a.807.807 0 00-1.155-.927 18.652 18.652 0 1025.423 25.424.807.807 0 00-.927-1.196 18.69 18.69 0 01-7.028.806z" fill="#EFCC00"/><path d="M31.793 21.366a23.502 23.502 0 0120.788 12.523 18.477 18.477 0 119.232 34.427l-30.087.08a23.516 23.516 0 010-47.03h.067z" fill="url(#paint0_linear)"/><path d="M79.68 54.81c2.745-9.828-2.996-20.02-12.824-22.767-9.828-2.746-20.02 2.996-22.767 12.824-2.746 9.828 2.996 20.02 12.824 22.766 9.827 2.746 20.02-2.995 22.766-12.823z" fill="url(#paint1_linear)"/><path d="M44.518 56.908l-2.862 16.46h5.725L44.518 85.53l13.6-17.173H51.68l5.724-11.45H44.518z" fill="#EFCC00"/><path d="M38.767 79.657a5 5 0 01-9.997 0c0-4.38 4.031-8.438 4.999-8.438.967 0 4.998 4.031 4.998 8.439z" fill="#0BAEFF"/><defs><linearGradient id="paint0_linear" x1="25.867" y1="70.399" x2="54.207" y2="33.701" gradientUnits="userSpaceOnUse"><stop stop-color="#F2F2F2"/><stop offset="1" stop-color="#CFCFCF"/></linearGradient><linearGradient id="paint1_linear" x1="69.427" y1="43.267" x2="48.019" y2="61.912" gradientUnits="userSpaceOnUse"><stop offset=".02" stop-color="#fff"/><stop offset="1" stop-color="#fff" stop-opacity="0"/></linearGradient></defs></svg>