<svg width="86" height="86" viewBox="0 0 86 86" fill="none" xmlns="http://www.w3.org/2000/svg">
<path d="M73.7449 12.2684C57.4457 12.2862 41.8193 18.7689 30.294 30.2941C18.7688 41.8194 12.2861 57.4459 12.2683 73.745H23.9724C24.0008 60.5675 29.2481 47.9378 38.566 38.6199C47.8839 29.302 60.5136 24.0546 73.6911 24.0262" fill="#F7563C"/>
<path d="M73.7449 23.9725C60.5674 24.0009 47.9377 29.2483 38.6198 38.5662C29.3019 47.8841 24.0545 60.5138 24.0261 73.6913H35.7302C35.7515 63.6157 39.7634 53.9589 46.888 46.8344C54.0125 39.7098 63.6693 35.6979 73.7449 35.6766" fill="#EFCC00"/>
<path d="M73.745 35.6766C63.6508 35.6837 53.972 39.6968 46.8344 46.8344C39.6967 53.9721 35.6836 63.6508 35.6765 73.745H47.3806C47.3877 66.7562 50.1681 60.0558 55.1112 55.1152C60.0543 50.1746 66.7561 47.3976 73.745 47.3941" fill="#42BC59"/>
<path d="M73.745 47.394C66.7585 47.4012 60.0601 50.1797 55.1199 55.1199C50.1797 60.0601 47.4012 66.7585 47.394 73.745H59.125C59.1285 69.8686 60.67 66.152 63.411 63.411C66.152 60.67 69.8686 59.1285 73.745 59.125" fill="#0D98FF"/>
</svg>
