<svg width="86" height="86" viewBox="0 0 86 86" fill="none" xmlns="http://www.w3.org/2000/svg">
<path d="M31.7933 13.3031C36.0698 13.3018 40.2656 14.4673 43.9287 16.6742C47.5919 18.881 50.5834 22.0456 52.5811 25.8268C55.0348 24.3923 57.7864 23.5432 60.6218 23.3456C63.4572 23.1479 66.3 23.6071 68.929 24.6874C71.558 25.7677 73.9023 27.44 75.7796 29.5741C77.6568 31.7082 79.0164 34.2467 79.7526 36.992C80.4887 39.7373 80.5816 42.6154 80.0239 45.4025C79.4663 48.1895 78.2732 50.8103 76.5374 53.061C74.8016 55.3117 72.5699 57.1316 70.0161 58.3792C67.4622 59.6267 64.6549 60.2682 61.8126 60.2537L31.7261 60.3344C25.4893 60.3344 19.5081 57.8568 15.098 53.4468C10.688 49.0367 8.21045 43.0555 8.21045 36.8187C8.21045 30.582 10.688 24.6007 15.098 20.1907C19.5081 15.7806 25.4893 13.3031 31.7261 13.3031H31.7933Z" fill="url(#paint0_linear)"/>
<path d="M79.6811 46.755C82.427 36.9271 76.6858 26.734 66.8579 23.9881C57.0299 21.2423 46.8368 26.9834 44.091 36.8114C41.3451 46.6393 47.0863 56.8324 56.9142 59.5783C66.7422 62.3241 76.9352 56.583 79.6811 46.755Z" fill="url(#paint1_linear)"/>
<path d="M43.1746 36.4156V50.0278" stroke="#9C9FA0" stroke-width="2" stroke-miterlimit="10" stroke-linecap="round"/>
<path d="M44.7469 34.6553L43.1747 36.6306L41.5891 34.6553" stroke="#9C9FA0" stroke-width="2" stroke-miterlimit="10" stroke-linecap="round"/>
<path d="M41.5891 51.8016L43.1747 49.8263L44.7469 51.8016" stroke="#9C9FA0" stroke-width="2" stroke-miterlimit="10" stroke-linecap="round"/>
<path d="M49.0603 39.8153L37.2756 46.6281" stroke="#9C9FA0" stroke-width="2" stroke-miterlimit="10" stroke-linecap="round"/>
<path d="M51.3849 40.3125L48.8855 39.9229L49.7992 37.5713" stroke="#9C9FA0" stroke-width="2" stroke-miterlimit="10" stroke-linecap="round"/>
<path d="M34.9509 46.1444L37.4503 46.5207L36.5366 48.8857" stroke="#9C9FA0" stroke-width="2" stroke-miterlimit="10" stroke-linecap="round"/>
<path d="M49.0603 46.6281L37.2756 39.8153" stroke="#9C9FA0" stroke-width="2" stroke-miterlimit="10" stroke-linecap="round"/>
<path d="M49.7992 48.8857L48.8855 46.5207L51.3849 46.1444" stroke="#9C9FA0" stroke-width="2" stroke-miterlimit="10" stroke-linecap="round"/>
<path d="M36.5366 37.5713L37.4503 39.9229L34.9509 40.3125" stroke="#9C9FA0" stroke-width="2" stroke-miterlimit="10" stroke-linecap="round"/>
<path d="M35.6094 73.4091C37.0936 73.4091 38.2969 72.2058 38.2969 70.7216C38.2969 69.2373 37.0936 68.0341 35.6094 68.0341C34.1251 68.0341 32.9219 69.2373 32.9219 70.7216C32.9219 72.2058 34.1251 73.4091 35.6094 73.4091Z" fill="#C4C4C4"/>
<path d="M49.0469 76.7684C50.1601 76.7684 51.0625 75.866 51.0625 74.7528C51.0625 73.6396 50.1601 72.7372 49.0469 72.7372C47.9337 72.7372 47.0312 73.6396 47.0312 74.7528C47.0312 75.866 47.9337 76.7684 49.0469 76.7684Z" fill="#E0E0E0"/>
<path d="M24.8594 67.3622C25.9726 67.3622 26.875 66.4598 26.875 65.3466C26.875 64.2334 25.9726 63.3309 24.8594 63.3309C23.7462 63.3309 22.8438 64.2334 22.8438 65.3466C22.8438 66.4598 23.7462 67.3622 24.8594 67.3622Z" fill="#E0E0E0"/>
<path d="M43.6719 66.6903C44.414 66.6903 45.0156 66.0887 45.0156 65.3466C45.0156 64.6044 44.414 64.0028 43.6719 64.0028C42.9297 64.0028 42.3281 64.6044 42.3281 65.3466C42.3281 66.0887 42.9297 66.6903 43.6719 66.6903Z" fill="white"/>
<path d="M62.4844 76.0966C63.2265 76.0966 63.8281 75.4949 63.8281 74.7528C63.8281 74.0107 63.2265 73.4091 62.4844 73.4091C61.7422 73.4091 61.1406 74.0107 61.1406 74.7528C61.1406 75.4949 61.7422 76.0966 62.4844 76.0966Z" fill="white"/>
<path d="M23.5156 76.0966C24.2578 76.0966 24.8594 75.4949 24.8594 74.7528C24.8594 74.0107 24.2578 73.4091 23.5156 73.4091C22.7735 73.4091 22.1719 74.0107 22.1719 74.7528C22.1719 75.4949 22.7735 76.0966 23.5156 76.0966Z" fill="white"/>
<path d="M57.1094 69.3778C58.5936 69.3778 59.7969 68.1746 59.7969 66.6903C59.7969 65.206 58.5936 64.0028 57.1094 64.0028C55.6251 64.0028 54.4219 65.206 54.4219 66.6903C54.4219 68.1746 55.6251 69.3778 57.1094 69.3778Z" fill="#C4C4C4"/>
<defs>
<linearGradient id="paint0_linear" x1="25.8673" y1="62.3365" x2="54.207" y2="25.6387" gradientUnits="userSpaceOnUse">
<stop stop-color="#F2F2F2"/>
<stop offset="1" stop-color="#CFCFCF"/>
</linearGradient>
<linearGradient id="paint1_linear" x1="69.4449" y1="35.2029" x2="48.0244" y2="53.8437" gradientUnits="userSpaceOnUse">
<stop offset="0.02" stop-color="white"/>
<stop offset="1" stop-color="white" stop-opacity="0"/>
</linearGradient>
</defs>
</svg>
